<svg xmlns="http://www.w3.org/2000/svg" width="90.711" height="90.711" viewBox="0 0 90.711 90.711">
  <g id="icon" transform="translate(-914.645 -2312.643)">
    <g id="bg" fill="#eebf00" stroke-linejoin="round">
      <path d="M 959.9999389648438 2401.85400390625 C 957.7294921875 2401.85400390625 955.5949096679688 2400.969970703125 953.989501953125 2399.36474609375 L 918.6341552734375 2364.00927734375 C 917.0286865234375 2362.40380859375 916.1445922851562 2360.269287109375 916.1445922851562 2357.998779296875 C 916.1445922851562 2355.72802734375 917.0286865234375 2353.59375 918.6340942382812 2351.988525390625 L 953.9895629882812 2316.633056640625 C 955.5950317382812 2315.02734375 957.7295532226562 2314.143310546875 959.9999389648438 2314.143310546875 C 962.2703247070312 2314.143310546875 964.4048461914062 2315.02734375 966.01025390625 2316.633056640625 L 1001.365600585938 2351.98828125 C 1002.971130371094 2353.59375 1003.855285644531 2355.72802734375 1003.855285644531 2357.998779296875 C 1003.855285644531 2360.269287109375 1002.971130371094 2362.40380859375 1001.365661621094 2364.009033203125 L 966.0103149414062 2399.364990234375 C 964.4049682617188 2400.969970703125 962.2703857421875 2401.85400390625 959.9999389648438 2401.85400390625 Z" stroke="none"/>
      <path d="M 959.9999389648438 2315.643310546875 C 958.1302490234375 2315.643310546875 956.3724365234375 2316.371337890625 955.0502319335938 2317.69384765625 L 919.6947021484375 2353.049072265625 C 918.3726806640625 2354.37109375 917.6445922851562 2356.12890625 917.6445922851562 2357.998779296875 C 917.6445922851562 2359.86865234375 918.3726806640625 2361.62646484375 919.69482421875 2362.948486328125 L 955.0501098632812 2398.30419921875 C 956.3722534179688 2399.6259765625 958.130126953125 2400.35400390625 959.9999389648438 2400.35400390625 C 961.8697509765625 2400.35400390625 963.6276245117188 2399.6259765625 964.9496459960938 2398.30419921875 L 1000.305053710938 2362.948486328125 C 1001.627136230469 2361.62646484375 1002.355285644531 2359.86865234375 1002.355285644531 2357.998779296875 C 1002.355285644531 2356.12890625 1001.627197265625 2354.37109375 1000.304931640625 2353.049072265625 L 964.9495239257812 2317.693603515625 C 963.62744140625 2316.371337890625 961.86962890625 2315.643310546875 959.9999389648438 2315.643310546875 M 959.9999389648438 2312.643310546875 C 962.5591430664062 2312.643310546875 965.1183471679688 2313.61962890625 967.0709838867188 2315.572509765625 L 1002.42626953125 2350.927734375 C 1006.331604003906 2354.83251953125 1006.331604003906 2361.164794921875 1002.42626953125 2365.06982421875 L 967.0709838867188 2400.425537109375 C 965.1183471679688 2402.3779296875 962.5591430664062 2403.35400390625 959.9999389648438 2403.35400390625 C 957.4407348632812 2403.35400390625 954.8815307617188 2402.3779296875 952.9288940429688 2400.425537109375 L 917.573486328125 2365.06982421875 C 913.6682739257812 2361.164794921875 913.6682739257812 2354.83251953125 917.573486328125 2350.927734375 L 952.9288940429688 2315.572509765625 C 954.8815307617188 2313.61962890625 957.4407348632812 2312.643310546875 959.9999389648438 2312.643310546875 Z" stroke="none" fill="#eebf00"/>
    </g>
    <path id="_" data-name=" " d="M955.713,2348.717v-2.143h8.57v2.143Zm-5.892,0H948.75a3.765,3.765,0,0,0-3.75,3.75v13.927a3.765,3.765,0,0,0,3.75,3.75h1.071Zm18.748,0h-2.142v-2.678a1.607,1.607,0,0,0-1.607-1.607h-9.641a1.607,1.607,0,0,0-1.607,1.607v2.678h-2.143v21.426h17.141Zm6.428,3.75a3.765,3.765,0,0,0-3.749-3.75h-1.071v21.426h1.071a3.765,3.765,0,0,0,3.749-3.75Z" fill="#fff"/>
  </g>
</svg>
