<svg xmlns="http://www.w3.org/2000/svg" width="13" height="11" viewBox="0 0 13 11">
  <path id="_" data-name="ïº" d="M898.5,1326a1,1,0,1,0-1,1A1,1,0,0,0,898.5,1326Zm7,0a1,1,0,1,0-1,1A1,1,0,0,0,905.5,1326Zm1-8.5a.5.5,0,0,0-.5-.5h-9.383c-.078-.375-.086-1-.617-1h-2a.5.5,0,0,0,0,1h1.594l1.383,6.43a4.332,4.332,0,0,0-.477,1.07.5.5,0,0,0,.5.5h8a.5.5,0,1,0,0-1h-7.187a1.184,1.184,0,0,0,.187-.5,3.216,3.216,0,0,0-.1-.547l8.156-.953a.505.505,0,0,0,.445-.5Z" transform="translate(-893.5 -1316)" fill="#fff"/>
</svg>
