<svg xmlns="http://www.w3.org/2000/svg" width="25.711" height="25.711" viewBox="0 0 25.711 25.711">
  <path id="_" data-name="" d="M1310,94.395a.529.529,0,0,0-.536-.535h-1.071a.529.529,0,0,0-.536.535v5.892h-3.749a.529.529,0,0,0-.536.535v1.071a.529.529,0,0,0,.536.536h5.356a.529.529,0,0,0,.536-.536Zm6.963,5.892a9.106,9.106,0,1,1-9.106-9.106A9.115,9.115,0,0,1,1316.961,100.287Zm3.75,0a12.856,12.856,0,1,0-12.856,12.855A12.859,12.859,0,0,0,1320.711,100.287Z" transform="translate(-1295 -87.432)" fill="#eebf00"/>
</svg>
