<svg xmlns="http://www.w3.org/2000/svg" width="34.003" height="34.003" viewBox="0 0 34.003 34.003">
  <g id="iocn" transform="translate(-475.001 -4680)">
    <g id="bg" fill="#fff" stroke-linejoin="round">
      <path d="M 492.0025024414062 4713.0029296875 C 490.3885192871094 4713.0029296875 488.8711242675781 4712.37451171875 487.7298889160156 4711.2333984375 L 477.7704772949219 4701.2744140625 C 475.4146423339844 4698.91845703125 475.4146118164062 4695.0849609375 477.7704467773438 4692.72900390625 L 487.7299194335938 4682.76953125 C 488.8711853027344 4681.62841796875 490.3885498046875 4680.99951171875 492.0025024414062 4680.99951171875 C 493.6164245605469 4680.99951171875 495.1337280273438 4681.62841796875 496.2749328613281 4682.76953125 L 506.2344665527344 4692.72900390625 C 508.59033203125 4695.0849609375 508.5903015136719 4698.91845703125 506.2344360351562 4701.2744140625 L 496.2749938964844 4711.2333984375 C 495.1337890625 4712.37451171875 493.616455078125 4713.0029296875 492.0025024414062 4713.0029296875 Z" stroke="none"/>
      <path d="M 492.0024719238281 4681.99951171875 C 490.6556701660156 4681.99951171875 489.3894653320312 4682.52392578125 488.43701171875 4683.4765625 L 478.4775390625 4693.43603515625 C 476.5115661621094 4695.40185546875 476.5116271972656 4698.60107421875 478.4775695800781 4700.5673828125 L 488.4369506835938 4710.5263671875 C 489.3893432617188 4711.478515625 490.6556091308594 4712.0029296875 492.0024719238281 4712.0029296875 C 493.349365234375 4712.0029296875 494.6155700683594 4711.478515625 495.5679016113281 4710.5263671875 L 505.5272827148438 4700.5673828125 C 507.4932861328125 4698.60107421875 507.4933471679688 4695.40185546875 505.5273742675781 4693.43603515625 L 495.5677490234375 4683.4765625 C 494.6154479980469 4682.52392578125 493.3492736816406 4681.99951171875 492.0024719238281 4681.99951171875 M 492.0024719238281 4679.99951171875 C 493.8047790527344 4679.99951171875 495.6070251464844 4680.68701171875 496.9820861816406 4682.0625 L 506.9415893554688 4692.02197265625 C 509.6917114257812 4694.77197265625 509.6917114257812 4699.23095703125 506.9415893554688 4701.9814453125 L 496.9820861816406 4711.9404296875 C 495.6070251464844 4713.3154296875 493.8047790527344 4714.0029296875 492.0024719238281 4714.0029296875 C 490.2001953125 4714.0029296875 488.3979187011719 4713.3154296875 487.0227966308594 4711.9404296875 L 477.0633850097656 4701.9814453125 C 474.3132019042969 4699.23095703125 474.3132019042969 4694.77197265625 477.0633850097656 4692.02197265625 L 487.0227966308594 4682.0625 C 488.3979187011719 4680.68701171875 490.2001953125 4679.99951171875 492.0024719238281 4679.99951171875 Z" stroke="none" fill="#eebf00"/>
    </g>
    <path id="_" data-name="" d="M493.506,4694.69a.265.265,0,0,0-.268-.268H492.7a.265.265,0,0,0-.268.268v2.949h-1.876a.265.265,0,0,0-.268.268v.536a.265.265,0,0,0,.268.268h2.681a.265.265,0,0,0,.268-.268Zm3.485,2.949a4.557,4.557,0,1,1-4.557-4.557A4.562,4.562,0,0,1,496.991,4697.639Zm1.876,0a6.434,6.434,0,1,0-6.434,6.434A6.435,6.435,0,0,0,498.867,4697.639Z" fill="#eebf00"/>
  </g>
</svg>
