<svg xmlns="http://www.w3.org/2000/svg" width="13.936" height="11" viewBox="0 0 13.936 11">
  <path id="_" data-name="ï„" d="M1271.937,28.25h-.437V27.5h-.75v-.437l.906-.906,1.188,1.187Zm3.438-5.625a.184.184,0,0,1-.008.258l-2.734,2.734a.177.177,0,1,1-.25-.25l2.734-2.734A.184.184,0,0,1,1275.375,22.625Zm.625,4.64a.245.245,0,0,0-.156-.226.241.241,0,0,0-.273.055l-.5.5a.242.242,0,0,0-.07.172v.984a1.254,1.254,0,0,1-1.25,1.25h-6.5a1.254,1.254,0,0,1-1.25-1.25v-6.5a1.254,1.254,0,0,1,1.25-1.25h6.5a1.361,1.361,0,0,1,.351.047.235.235,0,0,0,.25-.062l.383-.383a.245.245,0,0,0,.07-.227.254.254,0,0,0-.141-.18,2.186,2.186,0,0,0-.914-.2h-6.5a2.251,2.251,0,0,0-2.25,2.25v6.5a2.251,2.251,0,0,0,2.25,2.25h6.5a2.251,2.251,0,0,0,2.25-2.25Zm-.75-5.765L1270,26.75V29h2.25l5.25-5.25Zm3.469,1.031a.759.759,0,0,0,0-1.062l-1.187-1.188a.759.759,0,0,0-1.062,0l-.719.719,2.25,2.25Z" transform="translate(-1265 -20)" fill="#fff"/>
</svg>
