<svg xmlns="http://www.w3.org/2000/svg" width="34.003" height="34.004" viewBox="0 0 34.003 34.004">
  <g id="iocn" transform="translate(-475.001 -4615)">
    <g id="bg" fill="#fff" stroke-linejoin="round">
      <path d="M 492.0025024414062 4648.00341796875 C 490.3885498046875 4648.00341796875 488.8711853027344 4647.37451171875 487.7299499511719 4646.2333984375 L 477.7704467773438 4636.27490234375 C 475.4149780273438 4633.91796875 475.4148864746094 4630.08447265625 477.7704467773438 4627.72900390625 L 487.7299194335938 4617.76953125 C 488.8711853027344 4616.62841796875 490.3885498046875 4615.99951171875 492.0025024414062 4615.99951171875 C 493.6164245605469 4615.99951171875 495.1337280273438 4616.62841796875 496.2749328613281 4617.76953125 L 506.2344665527344 4627.72900390625 C 508.5900268554688 4630.08447265625 508.5899658203125 4633.91796875 506.2343139648438 4636.27490234375 L 496.2750244140625 4646.2333984375 C 495.1337280273438 4647.37451171875 493.6164245605469 4648.00341796875 492.0025024414062 4648.00341796875 Z" stroke="none"/>
      <path d="M 492.0024719238281 4616.99951171875 C 490.6556701660156 4616.99951171875 489.3894653320312 4617.5244140625 488.43701171875 4618.4765625 L 478.4775390625 4628.43603515625 C 476.5118103027344 4630.40185546875 476.511962890625 4633.60107421875 478.4775390625 4635.56787109375 L 488.4371032714844 4645.5263671875 C 489.3894653320312 4646.478515625 490.6556701660156 4647.00341796875 492.0024719238281 4647.00341796875 C 493.3492736816406 4647.00341796875 494.6154479980469 4646.478515625 495.5679321289062 4645.5263671875 L 505.5270385742188 4635.56787109375 C 507.4929504394531 4633.60107421875 507.4931335449219 4630.40185546875 505.5273742675781 4628.43603515625 L 495.5677795410156 4618.4765625 C 494.6154479980469 4617.52392578125 493.3492736816406 4616.99951171875 492.0024719238281 4616.99951171875 M 492.0024719238281 4614.99951171875 C 493.8047790527344 4614.99951171875 495.6070251464844 4615.68701171875 496.9820861816406 4617.0625 L 506.9415893554688 4627.02197265625 C 509.6917114257812 4629.77197265625 509.6917114257812 4634.23046875 506.9415893554688 4636.98193359375 L 496.9820861816406 4646.9404296875 C 495.6070251464844 4648.3154296875 493.8047790527344 4649.00341796875 492.0024719238281 4649.00341796875 C 490.2001953125 4649.00341796875 488.3979187011719 4648.3154296875 487.0227966308594 4646.9404296875 L 477.0633850097656 4636.98193359375 C 474.3132019042969 4634.23046875 474.3132019042969 4629.77197265625 477.0633850097656 4627.02197265625 L 487.0227966308594 4617.0625 C 488.3979187011719 4615.68701171875 490.2001953125 4614.99951171875 492.0024719238281 4614.99951171875 Z" stroke="none" fill="#eebf00"/>
    </g>
    <path id="_" data-name="" d="M498.988,4630.013a4.248,4.248,0,0,1-.725.631c-1.21.819-2.428,1.646-3.609,2.5a3.976,3.976,0,0,1-2.153,1h-.014a3.976,3.976,0,0,1-2.153-1c-1.181-.863-2.4-1.682-3.6-2.5a4.032,4.032,0,0,1-.732-.631v5.755a1.163,1.163,0,0,0,1.16,1.16h10.669a1.163,1.163,0,0,0,1.16-1.16Zm0-2.13a1.168,1.168,0,0,0-1.16-1.16H487.16a1.175,1.175,0,0,0-1.16,1.319,2.826,2.826,0,0,0,1.247,1.827c1.123.783,2.261,1.565,3.385,2.355.471.326,1.269.993,1.856.993h.014c.587,0,1.384-.667,1.855-.993,1.123-.79,2.261-1.573,3.392-2.355A2.618,2.618,0,0,0,498.988,4627.882Z" fill="#eebf00"/>
  </g>
</svg>
