<svg xmlns="http://www.w3.org/2000/svg" width="12.867" height="12.867" viewBox="0 0 12.867 12.867">
  <path id="instagram" d="M472.981,29.078a.508.508,0,0,1-.511.511h-8.955a.508.508,0,0,1-.511-.511V23.65h1.181a3.662,3.662,0,0,0-.168,1.1,4,4,0,0,0,8,0,3.668,3.668,0,0,0-.168-1.1h1.131ZM470.6,24.613a2.586,2.586,0,1,1-2.589-2.5A2.547,2.547,0,0,1,470.6,24.613Zm2.379-3.016a.579.579,0,0,1-.578.578h-1.458a.579.579,0,0,1-.578-.578V20.215a.579.579,0,0,1,.578-.578H472.4a.579.579,0,0,1,.578.578Zm1.457-1.743a1.659,1.659,0,0,0-1.65-1.65h-9.567a1.659,1.659,0,0,0-1.65,1.65v9.567a1.659,1.659,0,0,0,1.65,1.65h9.567a1.659,1.659,0,0,0,1.65-1.65Z" transform="translate(-461.572 -18.205)" fill="#fff"/>
</svg>
