<svg xmlns="http://www.w3.org/2000/svg" width="23.568" height="23.568" viewBox="0 0 23.568 23.568">
  <path id="_" data-name="" d="M398.568,107.045a.855.855,0,0,0-.05-.352c-.117-.351-.937-.72-1.272-.887-.954-.536-1.925-1.054-2.862-1.607-.435-.268-.971-.77-1.49-.77-1.021,0-2.511,3.03-3.415,3.03a3.6,3.6,0,0,1-1.44-.653,16.656,16.656,0,0,1-6.846-6.846,3.6,3.6,0,0,1-.653-1.44c0-.9,3.03-2.394,3.03-3.415,0-.519-.5-1.055-.77-1.49-.552-.937-1.071-1.908-1.607-2.862-.167-.335-.536-1.155-.887-1.272a.855.855,0,0,0-.352-.05,7.453,7.453,0,0,0-2.327.519,4.411,4.411,0,0,0-1.774,2.042A6.4,6.4,0,0,0,375,94.106a12.9,12.9,0,0,0,1.155,4.385,15.639,15.639,0,0,0,1.389,2.929,28.258,28.258,0,0,0,8.035,8.035,15.626,15.626,0,0,0,2.929,1.389A12.888,12.888,0,0,0,392.894,112a6.4,6.4,0,0,0,3.113-.854,4.412,4.412,0,0,0,2.042-1.774A7.448,7.448,0,0,0,398.568,107.045Z" transform="translate(-375 -88.432)" fill="#eebf00"/>
</svg>
