<svg xmlns="http://www.w3.org/2000/svg" width="34.003" height="34.004" viewBox="0 0 34.003 34.004">
  <g id="iocn" transform="translate(-475.001 -4549)">
    <g id="bg" fill="#fff" stroke-linejoin="round">
      <path d="M 492.0025024414062 4582.00341796875 C 490.3885498046875 4582.00341796875 488.8711853027344 4581.37451171875 487.7299499511719 4580.2333984375 L 477.7704772949219 4570.27392578125 C 476.6292419433594 4569.1328125 476.000732421875 4567.615234375 476.0007629394531 4566.00146484375 C 476.000732421875 4564.3876953125 476.6292419433594 4562.8701171875 477.7704467773438 4561.72900390625 L 487.7299194335938 4551.76953125 C 488.8711853027344 4550.62841796875 490.3885498046875 4549.99951171875 492.0025024414062 4549.99951171875 C 493.6164245605469 4549.99951171875 495.1337280273438 4550.62841796875 496.2749328613281 4551.76953125 L 506.2344665527344 4561.72900390625 C 507.3757019042969 4562.8701171875 508.0041809082031 4564.3876953125 508.0041809082031 4566.00146484375 C 508.0041809082031 4567.615234375 507.3757019042969 4569.1328125 506.2344970703125 4570.27392578125 L 496.2749633789062 4580.2333984375 C 495.1337280273438 4581.37451171875 493.6164245605469 4582.00341796875 492.0025024414062 4582.00341796875 Z" stroke="none"/>
      <path d="M 492.0024719238281 4550.99951171875 C 490.6556701660156 4550.99951171875 489.3894653320312 4551.5244140625 488.43701171875 4552.4765625 L 478.4775390625 4562.43603515625 C 477.5252075195312 4563.388671875 477.000732421875 4564.65478515625 477.000732421875 4566.00146484375 C 477.000732421875 4567.34814453125 477.5252075195312 4568.6142578125 478.4776000976562 4569.56689453125 L 488.4371032714844 4579.5263671875 C 489.3894653320312 4580.478515625 490.6556701660156 4581.00341796875 492.0024719238281 4581.00341796875 C 493.3492736816406 4581.00341796875 494.6154479980469 4580.478515625 495.56787109375 4579.5263671875 L 505.5274047851562 4569.56689453125 C 506.479736328125 4568.6142578125 507.0041809082031 4567.34814453125 507.0041809082031 4566.00146484375 C 507.0041809082031 4564.65478515625 506.479736328125 4563.388671875 505.5273742675781 4562.43603515625 L 495.5677795410156 4552.4765625 C 494.6154479980469 4551.52392578125 493.3492736816406 4550.99951171875 492.0024719238281 4550.99951171875 M 492.0024719238281 4548.99951171875 C 493.8047790527344 4548.99951171875 495.6070251464844 4549.68701171875 496.9820861816406 4551.0625 L 506.9415893554688 4561.02197265625 C 509.6917114257812 4563.77197265625 509.6917114257812 4568.23095703125 506.9415893554688 4570.98095703125 L 496.9820861816406 4580.9404296875 C 495.6070251464844 4582.3154296875 493.8047790527344 4583.00341796875 492.0024719238281 4583.00341796875 C 490.2001953125 4583.00341796875 488.3979187011719 4582.3154296875 487.0227966308594 4580.9404296875 L 477.0633850097656 4570.98095703125 C 474.3132019042969 4568.23095703125 474.3132019042969 4563.77197265625 477.0633850097656 4561.02197265625 L 487.0227966308594 4551.0625 C 488.3979187011719 4549.68701171875 490.2001953125 4548.99951171875 492.0024719238281 4548.99951171875 Z" stroke="none" fill="#eebf00"/>
    </g>
    <path id="_" data-name="" d="M497.795,4569.521a.429.429,0,0,0-.025-.176c-.059-.176-.469-.36-.637-.444-.477-.268-.963-.528-1.432-.8-.218-.134-.486-.385-.746-.385-.511,0-1.257,1.516-1.709,1.516a1.8,1.8,0,0,1-.72-.327,8.338,8.338,0,0,1-3.426-3.426,1.8,1.8,0,0,1-.327-.721c0-.452,1.516-1.2,1.516-1.708,0-.26-.251-.528-.385-.746-.276-.469-.536-.955-.8-1.432-.084-.167-.268-.578-.444-.637a.424.424,0,0,0-.176-.025,3.731,3.731,0,0,0-1.164.26,2.21,2.21,0,0,0-.888,1.022,3.2,3.2,0,0,0-.427,1.558,6.455,6.455,0,0,0,.578,2.195,7.845,7.845,0,0,0,.7,1.466,14.137,14.137,0,0,0,4.021,4.021,7.825,7.825,0,0,0,1.466.7,6.45,6.45,0,0,0,2.195.578,3.206,3.206,0,0,0,1.558-.427,2.207,2.207,0,0,0,1.022-.888A3.725,3.725,0,0,0,497.795,4569.521Z" fill="#eebf00"/>
  </g>
</svg>
