<svg xmlns="http://www.w3.org/2000/svg" width="90.711" height="90.711" viewBox="0 0 90.711 90.711">
  <g id="icon" transform="translate(-514.645 -2312.643)">
    <g id="Group_1" data-name="Group 1">
      <g id="bg" fill="#fff" stroke-linejoin="round">
        <path d="M 559.9999389648438 2401.85400390625 C 557.7294311523438 2401.85400390625 555.5948486328125 2400.969970703125 553.9893798828125 2399.36474609375 L 518.63427734375 2364.00927734375 C 517.0287475585938 2362.40380859375 516.1445922851562 2360.269287109375 516.1445922851562 2357.998779296875 C 516.1445922851562 2355.72802734375 517.0287475585938 2353.59375 518.6342163085938 2351.988525390625 L 553.9894409179688 2316.633056640625 C 555.594970703125 2315.02734375 557.7294921875 2314.143310546875 559.9999389648438 2314.143310546875 C 562.2703247070312 2314.143310546875 564.4048461914062 2315.02734375 566.01025390625 2316.633056640625 L 601.36572265625 2351.98828125 C 602.97119140625 2353.59375 603.8552856445312 2355.72802734375 603.8552856445312 2357.998779296875 C 603.8552856445312 2360.269287109375 602.97119140625 2362.40380859375 601.36572265625 2364.009033203125 L 566.0103149414062 2399.364990234375 C 564.4049682617188 2400.969970703125 562.2703857421875 2401.85400390625 559.9999389648438 2401.85400390625 Z" stroke="none"/>
        <path d="M 559.9999389648438 2315.643310546875 C 558.1301879882812 2315.643310546875 556.3723754882812 2316.371337890625 555.0501098632812 2317.69384765625 L 519.6947631835938 2353.04931640625 C 518.3726806640625 2354.37109375 517.6445922851562 2356.12890625 517.6445922851562 2357.998779296875 C 517.6445922851562 2359.86865234375 518.3727416992188 2361.62646484375 519.6949462890625 2362.948486328125 L 555.0499267578125 2398.303955078125 C 556.3721313476562 2399.6259765625 558.1300659179688 2400.35400390625 559.9999389648438 2400.35400390625 C 561.8697509765625 2400.35400390625 563.6276245117188 2399.6259765625 564.9496459960938 2398.30419921875 L 600.3051147460938 2362.948486328125 C 601.627197265625 2361.62646484375 602.3552856445312 2359.86865234375 602.3552856445312 2357.998779296875 C 602.3552856445312 2356.12890625 601.627197265625 2354.37109375 600.3050537109375 2353.049072265625 L 564.9495239257812 2317.693603515625 C 563.62744140625 2316.371337890625 561.86962890625 2315.643310546875 559.9999389648438 2315.643310546875 M 559.9999389648438 2312.643310546875 C 562.5591430664062 2312.643310546875 565.1183471679688 2313.61962890625 567.0709838867188 2315.572509765625 L 602.4263916015625 2350.927734375 C 606.3316040039062 2354.83251953125 606.3316040039062 2361.164794921875 602.4263916015625 2365.06982421875 L 567.0709838867188 2400.425537109375 C 565.1183471679688 2402.3779296875 562.5591430664062 2403.35400390625 559.9999389648438 2403.35400390625 C 557.440673828125 2403.35400390625 554.8814086914062 2402.3779296875 552.9287719726562 2400.425537109375 L 517.5736083984375 2365.06982421875 C 513.6682739257812 2361.164794921875 513.6682739257812 2354.83251953125 517.5736083984375 2350.927734375 L 552.9287719726562 2315.572509765625 C 554.8814086914062 2313.61962890625 557.440673828125 2312.643310546875 559.9999389648438 2312.643310546875 Z" stroke="none" fill="#232b38"/>
      </g>
    </g>
    <path id="_" data-name=" " d="M554.713,2365.857a2.143,2.143,0,1,1-2.143-2.143A2.158,2.158,0,0,1,554.713,2365.857Zm-6.428-8.571v-.5a1.01,1.01,0,0,1,.151-.368l3.264-3.264a1.012,1.012,0,0,1,.368-.151h2.645v4.285Zm21.426,8.571a2.143,2.143,0,1,1-2.142-2.143A2.158,2.158,0,0,1,569.711,2365.857ZM574,2347.645a1.079,1.079,0,0,0-1.071-1.071H555.784a1.079,1.079,0,0,0-1.071,1.071v3.214h-2.678a2.928,2.928,0,0,0-1.825.753l-3.314,3.314c-.921.921-.753,2.243-.753,3.432v5.356a1.079,1.079,0,0,0-1.071,1.071c0,1.239,1.306,1.072,2.143,1.072h1.071a4.285,4.285,0,0,0,8.57,0h6.428a4.285,4.285,0,0,0,8.57,0c.837,0,2.142.167,2.142-1.072Z" fill="#232b38"/>
  </g>
</svg>
