<svg xmlns="http://www.w3.org/2000/svg" width="13.202" height="10.723" viewBox="0 0 13.202 10.723">
  <path id="twitter" d="M415.607,20.551a5.431,5.431,0,0,1-1.558.419,2.7,2.7,0,0,0,1.189-1.491,5.327,5.327,0,0,1-1.717.653,2.708,2.708,0,0,0-4.683,1.851,3.052,3.052,0,0,0,.067.62,7.69,7.69,0,0,1-5.579-2.832,2.71,2.71,0,0,0,.838,3.619,2.722,2.722,0,0,1-1.223-.343v.033a2.706,2.706,0,0,0,2.17,2.656,2.862,2.862,0,0,1-.712.092,3.4,3.4,0,0,1-.511-.042,2.71,2.71,0,0,0,2.53,1.876,5.419,5.419,0,0,1-3.359,1.156,5.556,5.556,0,0,1-.653-.034A7.7,7.7,0,0,0,414.258,22.3c0-.117,0-.234-.008-.352A5.819,5.819,0,0,0,415.607,20.551Z" transform="translate(-402.405 -19.277)" fill="#fff"/>
</svg>
